<svg xmlns="http://www.w3.org/2000/svg" class="ionicon" viewBox="0 0 512 512" fill="#fff">
  <path d="M349.33 32H162.67C90.8 32 32 90.8 32 162.67v186.66C32 421.2 90.8 480 162.67 480h186.66C421.2 480 480 421.2 480 349.33V162.67C480 90.8 421.2 32 349.33 32zM196.67 402.67h-50V210.67h50zm-25-210.67a25 25 0 1125-25 25.07 25.07 0 01-25 25zm211.33 210.67h-50v-99.6c0-23.4-8.32-39.6-27.74-39.6-15.1 0-24.25 10.1-28.27 19.8-1.49 3.5-1.87 8.4-1.87 13.2v106.4h-50V210.67h50v28.1c7.17-10.8 19.43-28.1 47.43-28.1 34.66 0 60.54 23.68 60.54 74.9z"/>
</svg>
